<?xml version="1.0" encoding="UTF-8"?>
<svg xmlns="http://www.w3.org/2000/svg" viewBox="0 0 128 128" width="128" height="128">
  <defs>
    <!-- Background gradient -->
    <linearGradient id="bgGradient" x1="0%" y1="0%" x2="100%" y2="100%">
      <stop offset="0%" style="stop-color:#667eea;stop-opacity:1" />
      <stop offset="100%" style="stop-color:#764ba2;stop-opacity:1" />
    </linearGradient>
    
    <!-- Chat bubble gradient -->
    <linearGradient id="chatGradient" x1="0%" y1="0%" x2="100%" y2="100%">
      <stop offset="0%" style="stop-color:#4facfe;stop-opacity:1" />
      <stop offset="100%" style="stop-color:#00f2fe;stop-opacity:1" />
    </linearGradient>
    
    <!-- Open symbol gradient -->
    <linearGradient id="openGradient" x1="0%" y1="0%" x2="100%" y2="100%">
      <stop offset="0%" style="stop-color:#fa709a;stop-opacity:1" />
      <stop offset="100%" style="stop-color:#fee140;stop-opacity:1" />
    </linearGradient>
    
    <!-- AI brain gradient -->
    <linearGradient id="aiGradient" x1="0%" y1="0%" x2="100%" y2="100%">
      <stop offset="0%" style="stop-color:#ff6b6b;stop-opacity:1" />
      <stop offset="100%" style="stop-color:#ffa500;stop-opacity:1" />
    </linearGradient>
    
    <!-- Connection gradient -->
    <linearGradient id="connectionGradient" x1="0%" y1="0%" x2="100%" y2="100%">
      <stop offset="0%" style="stop-color:#51e5ff;stop-opacity:1" />
      <stop offset="100%" style="stop-color:#7209b7;stop-opacity:1" />
    </linearGradient>
    
    <!-- Text gradient -->
    <linearGradient id="textGradient" x1="0%" y1="0%" x2="100%" y2="100%">
      <stop offset="0%" style="stop-color:#ffffff;stop-opacity:1" />
      <stop offset="100%" style="stop-color:#f0f0f0;stop-opacity:1" />
    </linearGradient>
    
    <!-- Glow filter for AI elements -->
    <filter id="glow">
      <feGaussianBlur stdDeviation="2" result="coloredBlur"/>
      <feMerge>
        <feMergeNode in="coloredBlur"/>
        <feMergeNode in="SourceGraphic"/>
      </feMerge>
    </filter>
  </defs>
  
  <!-- Background with rounded corners -->
  <rect width="128" height="128" rx="24" ry="24" fill="url(#bgGradient)"/>
  
  <!-- Network connection lines (background) -->
  <g opacity="0.2">
    <path d="M10 10 Q64 30 118 10" stroke="rgba(255,255,255,0.4)" stroke-width="1" fill="none"/>
    <path d="M10 118 Q64 98 118 118" stroke="rgba(255,255,255,0.4)" stroke-width="1" fill="none"/>
    <path d="M10 10 Q30 64 10 118" stroke="rgba(255,255,255,0.4)" stroke-width="1" fill="none"/>
    <path d="M118 10 Q98 64 118 118" stroke="rgba(255,255,255,0.4)" stroke-width="1" fill="none"/>
  </g>
  
  <!-- Chat bubble with AI enhancement -->
  <g transform="translate(15, 20)">
    <!-- Main chat bubble -->
    <path d="M8 8 L65 8 Q73 8 73 16 L73 35 Q73 43 65 43 L22 43 L8 52 L8 16 Q8 8 16 8 Z" 
          fill="url(#chatGradient)" 
          stroke="rgba(255,255,255,0.3)" 
          stroke-width="1"/>
    
    <!-- AI brain icon inside chat bubble -->
    <g transform="translate(12, 12)">
      <!-- Brain outline -->
      <path d="M25 8 Q35 8 40 15 Q45 12 50 15 Q55 20 52 28 Q50 35 45 38 Q35 40 25 38 Q15 35 13 28 Q10 20 15 15 Q20 12 25 8 Z" 
            fill="url(#aiGradient)" 
            opacity="0.8"
            filter="url(#glow)"/>
      
      <!-- Brain neural pathways -->
      <g stroke="rgba(255,255,255,0.9)" stroke-width="1" fill="none" opacity="0.7">
        <path d="M20 18 Q25 22 30 18"/>
        <path d="M22 25 Q28 28 34 25"/>
        <path d="M25 15 L25 32"/>
        <path d="M18 22 Q25 25 32 22"/>
      </g>
    </g>
    
    <!-- Typing indicator dots -->
    <g transform="translate(45, 25)">
      <circle cx="0" cy="0" r="2" fill="rgba(255,255,255,0.9)">
        <animate attributeName="opacity" values="0.3;1;0.3" dur="1.5s" repeatCount="indefinite"/>
      </circle>
      <circle cx="8" cy="0" r="2" fill="rgba(255,255,255,0.7)">
        <animate attributeName="opacity" values="0.3;1;0.3" dur="1.5s" begin="0.3s" repeatCount="indefinite"/>
      </circle>
      <circle cx="16" cy="0" r="2" fill="rgba(255,255,255,0.5)">
        <animate attributeName="opacity" values="0.3;1;0.3" dur="1.5s" begin="0.6s" repeatCount="indefinite"/>
      </circle>
    </g>
  </g>
  
  <!-- Open portal with enhanced elements -->
  <g transform="translate(70, 45)">
    <!-- Portal frame -->
    <rect x="0" y="0" width="35" height="45" rx="6" ry="6" 
          fill="url(#openGradient)" 
          stroke="rgba(255,255,255,0.3)" 
          stroke-width="1"/>
    
    <!-- Open doorway with depth -->
    <path d="M6 6 L29 6 Q32 6 32 9 L32 39 Q32 42 29 42 L6 42 Z" 
          fill="rgba(255,255,255,0.1)" 
          stroke="rgba(255,255,255,0.4)" 
          stroke-width="1"/>
    
    <!-- Door handle -->
    <circle cx="26" cy="24" r="2" fill="rgba(255,255,255,0.9)"/>
    
    <!-- Digital data streams coming out -->
    <g opacity="0.8">
      <!-- Binary code streams -->
      <g font-family="monospace" font-size="4" fill="rgba(255,255,255,0.8)">
        <text x="35" y="15">01</text>
        <text x="40" y="20">10</text>
        <text x="38" y="25">11</text>
        <text x="42" y="30">01</text>
      </g>
      
      <!-- Light rays -->
      <path d="M32 18 L45 12" stroke="rgba(255,255,255,0.9)" stroke-width="2" stroke-linecap="round"/>
      <path d="M32 24 L48 24" stroke="rgba(255,255,255,0.9)" stroke-width="2" stroke-linecap="round"/>
      <path d="M32 30 L45 36" stroke="rgba(255,255,255,0.9)" stroke-width="2" stroke-linecap="round"/>
    </g>
    
    <!-- Particle effects -->
    <g opacity="0.6">
      <circle cx="38" cy="16" r="1" fill="rgba(255,255,255,0.8)">
        <animate attributeName="cx" values="38;45;52" dur="2s" repeatCount="indefinite"/>
        <animate attributeName="opacity" values="0;1;0" dur="2s" repeatCount="indefinite"/>
      </circle>
      <circle cx="40" cy="28" r="1" fill="rgba(255,255,255,0.6)">
        <animate attributeName="cx" values="40;47;54" dur="2.5s" repeatCount="indefinite"/>
        <animate attributeName="opacity" values="0;1;0" dur="2.5s" repeatCount="indefinite"/>
      </circle>
    </g>
  </g>
  
  <!-- Connection nodes -->
  <g opacity="0.7">
    <!-- Network nodes -->
    <circle cx="25" cy="70" r="3" fill="url(#connectionGradient)" stroke="rgba(255,255,255,0.5)" stroke-width="1"/>
    <circle cx="103" cy="75" r="3" fill="url(#connectionGradient)" stroke="rgba(255,255,255,0.5)" stroke-width="1"/>
    <circle cx="45" cy="95" r="2" fill="url(#connectionGradient)" stroke="rgba(255,255,255,0.3)" stroke-width="1"/>
    <circle cx="85" cy="98" r="2" fill="url(#connectionGradient)" stroke="rgba(255,255,255,0.3)" stroke-width="1"/>
    
    <!-- Connection lines -->
    <path d="M25 70 Q45 82 45 95" stroke="url(#connectionGradient)" stroke-width="1" fill="none" opacity="0.6"/>
    <path d="M45 95 Q65 96 85 98" stroke="url(#connectionGradient)" stroke-width="1" fill="none" opacity="0.6"/>
    <path d="M85 98 Q94 86 103 75" stroke="url(#connectionGradient)" stroke-width="1" fill="none" opacity="0.6"/>
  </g>
  
  <!-- ChatOpens text with tech styling -->
  <g transform="translate(8, 105)">
    <!-- Main text -->
    <text x="0" y="12" 
          font-family="Arial, sans-serif" 
          font-size="14" 
          font-weight="bold" 
          fill="url(#textGradient)"
          text-anchor="start">ChatOpens</text>
    
    <!-- Tech underline -->
    <path d="M0 16 L65 16" stroke="url(#connectionGradient)" stroke-width="2" opacity="0.6"/>
    
    <!-- Small tech indicators -->
    <g transform="translate(70, 8)">
      <rect x="0" y="0" width="4" height="4" rx="1" fill="rgba(255,255,255,0.6)"/>
      <rect x="6" y="2" width="4" height="4" rx="1" fill="rgba(255,255,255,0.4)"/>
      <rect x="12" y="0" width="4" height="4" rx="1" fill="rgba(255,255,255,0.6)"/>
    </g>
  </g>
  
  <!-- Floating data elements -->
  <g opacity="0.4">
    <!-- Code brackets -->
    <text x="95" y="25" font-family="monospace" font-size="8" fill="rgba(255,255,255,0.7)">&lt;/&gt;</text>
    <text x="15" y="95" font-family="monospace" font-size="6" fill="rgba(255,255,255,0.5)">{}</text>
    
    <!-- API symbols -->
    <circle cx="110" cy="45" r="1" fill="rgba(255,255,255,0.6)"/>
    <text x="107" y="48" font-family="sans-serif" font-size="4" fill="rgba(255,255,255,0.6)">API</text>
  </g>
  
  <!-- Ambient sparkles -->
  <g opacity="0.3">
    <circle cx="20" cy="15" r="1" fill="rgba(255,255,255,0.8)">
      <animate attributeName="opacity" values="0.3;1;0.3" dur="3s" repeatCount="indefinite"/>
    </circle>
    <circle cx="108" cy="25" r="1.5" fill="rgba(255,255,255,0.6)">
      <animate attributeName="opacity" values="0.3;1;0.3" dur="2s" repeatCount="indefinite"/>
    </circle>
    <circle cx="15" cy="85" r="1" fill="rgba(255,255,255,0.7)">
      <animate attributeName="opacity" values="0.3;1;0.3" dur="2.5s" repeatCount="indefinite"/>
    </circle>
  </g>
  
</svg>