<?xml version="1.0" encoding="UTF-8"?>
<svg xmlns="http://www.w3.org/2000/svg" viewBox="0 0 32 32" width="32" height="32">
  <defs>
    <linearGradient id="bgGradient32" x1="0%" y1="0%" x2="100%" y2="100%">
      <stop offset="0%" style="stop-color:#667eea;stop-opacity:1" />
      <stop offset="100%" style="stop-color:#764ba2;stop-opacity:1" />
    </linearGradient>
    <linearGradient id="chatGradient32" x1="0%" y1="0%" x2="100%" y2="100%">
      <stop offset="0%" style="stop-color:#4facfe;stop-opacity:1" />
      <stop offset="100%" style="stop-color:#00f2fe;stop-opacity:1" />
    </linearGradient>
    <linearGradient id="openGradient32" x1="0%" y1="0%" x2="100%" y2="100%">
      <stop offset="0%" style="stop-color:#fa709a;stop-opacity:1" />
      <stop offset="100%" style="stop-color:#fee140;stop-opacity:1" />
    </linearGradient>
    <linearGradient id="aiGradient32" x1="0%" y1="0%" x2="100%" y2="100%">
      <stop offset="0%" style="stop-color:#ff6b6b;stop-opacity:1" />
      <stop offset="100%" style="stop-color:#ffa500;stop-opacity:1" />
    </linearGradient>
  </defs>
  
  <!-- Background -->
  <rect width="32" height="32" rx="6" ry="6" fill="url(#bgGradient32)"/>
  
  <!-- Chat bubble -->
  <path d="M4 6 L16 6 Q18 6 18 8 L18 14 Q18 16 16 16 L8 16 L4 20 L4 8 Q4 6 6 6 Z" 
        fill="url(#chatGradient32)" stroke="rgba(255,255,255,0.4)" stroke-width="0.5"/>
  
  <!-- AI brain mini -->
  <ellipse cx="11" cy="11" rx="3" ry="2" fill="url(#aiGradient32)" opacity="0.7"/>
  <path d="M9 10 Q11 11 13 10" stroke="rgba(255,255,255,0.8)" stroke-width="0.5" fill="none"/>
  <path d="M9 12 Q11 13 13 12" stroke="rgba(255,255,255,0.8)" stroke-width="0.5" fill="none"/>
  
  <!-- Chat dots -->
  <circle cx="14" cy="11" r="1" fill="rgba(255,255,255,0.9)"/>
  <circle cx="16" cy="11" r="0.8" fill="rgba(255,255,255,0.7)"/>
  
  <!-- Open door -->
  <rect x="20" y="10" width="8" height="12" rx="1" 
        fill="url(#openGradient32)" stroke="rgba(255,255,255,0.3)" stroke-width="0.5"/>
  
  <!-- Door opening -->
  <rect x="21" y="11" width="5" height="10" rx="0.5" 
        fill="rgba(255,255,255,0.15)" stroke="rgba(255,255,255,0.4)" stroke-width="0.5"/>
  
  <!-- Door handle -->
  <circle cx="24" cy="16" r="0.8" fill="rgba(255,255,255,0.9)"/>
  
  <!-- Light rays -->
  <path d="M26 14 L30 12" stroke="rgba(255,255,255,0.8)" stroke-width="1" stroke-linecap="round"/>
  <path d="M26 16 L30 16" stroke="rgba(255,255,255,0.8)" stroke-width="1" stroke-linecap="round"/>
  <path d="M26 18 L30 20" stroke="rgba(255,255,255,0.8)" stroke-width="1" stroke-linecap="round"/>
  
  <!-- Binary data -->
  <text x="27" y="13" font-family="monospace" font-size="2" fill="rgba(255,255,255,0.7)">01</text>
  <text x="28" y="19" font-family="monospace" font-size="2" fill="rgba(255,255,255,0.7)">11</text>
  
  <!-- Connection nodes -->
  <circle cx="6" cy="26" r="1" fill="rgba(255,255,255,0.6)"/>
  <circle cx="26" cy="28" r="1" fill="rgba(255,255,255,0.6)"/>
  <path d="M6 26 Q16 28 26 28" stroke="rgba(255,255,255,0.4)" stroke-width="0.5" fill="none"/>
  
  <!-- Sparkles -->
  <circle cx="4" cy="4" r="0.5" fill="rgba(255,255,255,0.7)"/>
  <circle cx="28" cy="6" r="0.5" fill="rgba(255,255,255,0.5)"/>
  
</svg>